<svg width="20" height="21" viewBox="0 0 20 21" fill="none" xmlns="http://www.w3.org/2000/svg">
<g clip-path="url(#clip0_181_1186)">
<path d="M9.75928 20.1748C15.006 20.1748 19.2593 15.6977 19.2593 10.1748C19.2593 4.65195 15.006 0.174805 9.75928 0.174805C4.51257 0.174805 0.259277 4.65195 0.259277 10.1748C0.264955 15.6952 4.51491 20.1688 9.75928 20.1748ZM17.6759 10.1748C17.6796 14.7735 14.141 18.5046 9.7723 18.5085C7.94233 18.5102 6.16839 17.8438 4.75278 16.6231L15.8852 4.9048C17.0444 6.38988 17.6774 8.25273 17.6759 10.1748ZM9.75928 1.84148C11.5852 1.83996 13.355 2.50629 14.7658 3.72648L3.63337 15.4448C0.864865 11.8874 1.3602 6.64109 4.73975 3.72684C6.15536 2.50613 7.9293 1.83984 9.75928 1.84148Z" fill="#006E5F"/>
</g>
<defs>
<clipPath id="clip0_181_1186">
<rect width="19" height="20" fill="white" transform="translate(0.259277 0.174805)"/>
</clipPath>
</defs>
</svg>
