<svg width="17" height="18" viewBox="0 0 17 18" fill="none" xmlns="http://www.w3.org/2000/svg">
<g clip-path="url(#clip0_140_1376)">
<path d="M0.873047 13.9185C0.874105 14.8574 1.22563 15.7576 1.85053 16.4216C2.47542 17.0855 3.32265 17.459 4.20638 17.4601H13.5397C14.4234 17.459 15.2707 17.0855 15.8956 16.4216C16.5205 15.7576 16.872 14.8574 16.873 13.9185V7.54346H0.873047V13.9185ZM12.2064 10.731C12.4042 10.731 12.5975 10.7933 12.762 10.91C12.9264 11.0268 13.0546 11.1927 13.1303 11.3869C13.2059 11.581 13.2258 11.7946 13.1872 12.0007C13.1486 12.2068 13.0533 12.3962 12.9135 12.5448C12.7736 12.6934 12.5955 12.7945 12.4015 12.8355C12.2075 12.8765 12.0064 12.8555 11.8237 12.7751C11.641 12.6947 11.4848 12.5585 11.3749 12.3838C11.265 12.209 11.2064 12.0036 11.2064 11.7935C11.2064 11.5117 11.3117 11.2414 11.4993 11.0422C11.6868 10.8429 11.9412 10.731 12.2064 10.731ZM8.87305 10.731C9.07083 10.731 9.26417 10.7933 9.42862 10.91C9.59307 11.0268 9.72124 11.1927 9.79693 11.3869C9.87261 11.581 9.89242 11.7946 9.85383 12.0007C9.81525 12.2068 9.72001 12.3962 9.58015 12.5448C9.4403 12.6934 9.26212 12.7945 9.06814 12.8355C8.87416 12.8765 8.67309 12.8555 8.49036 12.7751C8.30764 12.6947 8.15146 12.5585 8.04158 12.3838C7.9317 12.209 7.87305 12.0036 7.87305 11.7935C7.87305 11.5117 7.9784 11.2414 8.16594 11.0422C8.35348 10.8429 8.60783 10.731 8.87305 10.731ZM5.53971 10.731C5.73749 10.731 5.93083 10.7933 6.09528 10.91C6.25973 11.0268 6.38791 11.1927 6.46359 11.3869C6.53928 11.581 6.55908 11.7946 6.5205 12.0007C6.48191 12.2068 6.38667 12.3962 6.24682 12.5448C6.10697 12.6934 5.92878 12.7945 5.7348 12.8355C5.54082 12.8765 5.33976 12.8555 5.15703 12.7751C4.9743 12.6947 4.81813 12.5585 4.70824 12.3838C4.59836 12.209 4.53971 12.0036 4.53971 11.7935C4.53971 11.5117 4.64507 11.2414 4.83261 11.0422C5.02014 10.8429 5.2745 10.731 5.53971 10.731Z" fill="#D9D9D9"/>
<path d="M13.5397 1.87687H12.873V1.16854C12.873 0.980677 12.8028 0.800509 12.6778 0.667671C12.5528 0.534833 12.3832 0.460205 12.2064 0.460205C12.0296 0.460205 11.86 0.534833 11.735 0.667671C11.61 0.800509 11.5397 0.980677 11.5397 1.16854V1.87687H6.20638V1.16854C6.20638 0.980677 6.13614 0.800509 6.01112 0.667671C5.88609 0.534833 5.71652 0.460205 5.53971 0.460205C5.3629 0.460205 5.19333 0.534833 5.06831 0.667671C4.94328 0.800509 4.87305 0.980677 4.87305 1.16854V1.87687H4.20638C3.32265 1.878 2.47542 2.2515 1.85053 2.91544C1.22563 3.57939 0.874105 4.47958 0.873047 5.41854L0.873047 6.12687H16.873V5.41854C16.872 4.47958 16.5205 3.57939 15.8956 2.91544C15.2707 2.2515 14.4234 1.878 13.5397 1.87687Z" fill="#D9D9D9"/>
</g>
<defs>
<clipPath id="clip0_140_1376">
<rect width="16" height="17" fill="white" transform="translate(0.873047 0.460205)"/>
</clipPath>
</defs>
</svg>
