<svg width="16" height="21" viewBox="0 0 16 21" fill="none" xmlns="http://www.w3.org/2000/svg">
<path d="M11.7747 7.93311V6.26644H5.10807V7.93311C4.00341 7.93443 2.94437 8.37384 2.16326 9.15495C1.38214 9.93607 0.942729 10.9951 0.941406 12.0998V16.2664C0.942729 17.3711 1.38214 18.4301 2.16326 19.2113C2.94437 19.9924 4.00341 20.4318 5.10807 20.4331H11.7747C12.8794 20.4318 13.9384 19.9924 14.7196 19.2113C15.5007 18.4301 15.9401 17.3711 15.9414 16.2664V12.0998C15.9401 10.9951 15.5007 9.93607 14.7196 9.15495C13.9384 8.37384 12.8794 7.93443 11.7747 7.93311ZM10.9414 14.5998H9.27474V16.2664C9.27474 16.4875 9.18694 16.6994 9.03066 16.8557C8.87438 17.012 8.66242 17.0998 8.44141 17.0998C8.22039 17.0998 8.00843 17.012 7.85215 16.8557C7.69587 16.6994 7.60807 16.4875 7.60807 16.2664V14.5998H5.94141C5.72039 14.5998 5.50843 14.512 5.35215 14.3557C5.19587 14.1994 5.10807 13.9875 5.10807 13.7664C5.10807 13.5454 5.19587 13.3335 5.35215 13.1772C5.50843 13.0209 5.72039 12.9331 5.94141 12.9331H7.60807V11.2664C7.60807 11.0454 7.69587 10.8335 7.85215 10.6772C8.00843 10.5209 8.22039 10.4331 8.44141 10.4331C8.66242 10.4331 8.87438 10.5209 9.03066 10.6772C9.18694 10.8335 9.27474 11.0454 9.27474 11.2664V12.9331H10.9414C11.1624 12.9331 11.3744 13.0209 11.5307 13.1772C11.6869 13.3335 11.7747 13.5454 11.7747 13.7664C11.7747 13.9875 11.6869 14.1994 11.5307 14.3557C11.3744 14.512 11.1624 14.5998 10.9414 14.5998ZM11.3581 4.59977H5.52474C4.97221 4.59977 4.4423 4.38028 4.0516 3.98958C3.6609 3.59888 3.44141 3.06897 3.44141 2.51644C3.44141 1.9639 3.6609 1.434 4.0516 1.0433C4.4423 0.652599 4.97221 0.433105 5.52474 0.433105L11.3581 0.433105C11.9106 0.433105 12.4405 0.652599 12.8312 1.0433C13.2219 1.434 13.4414 1.9639 13.4414 2.51644C13.4414 3.06897 13.2219 3.59888 12.8312 3.98958C12.4405 4.38028 11.9106 4.59977 11.3581 4.59977Z" fill="#006E5F"/>
</svg>
