<svg width="20" height="20" viewBox="0 0 20 20" fill="none" xmlns="http://www.w3.org/2000/svg">
<g clip-path="url(#clip0_181_1165)">
<path d="M1.05094 19.5C0.840981 19.5 0.639617 19.4166 0.491151 19.2681C0.342685 19.1197 0.259277 18.9183 0.259277 18.7083V3.66667C0.259277 2.82681 0.592907 2.02136 1.18677 1.4275C1.78064 0.83363 2.58609 0.5 3.42594 0.5L8.96761 0.5C9.80746 0.5 10.6129 0.83363 11.2068 1.4275C11.8006 2.02136 12.1343 2.82681 12.1343 3.66667V7.625C12.1343 8.46485 11.8006 9.27031 11.2068 9.86417C10.6129 10.458 9.80746 10.7917 8.96761 10.7917H1.84261V18.7083C1.84261 18.9183 1.7592 19.1197 1.61074 19.2681C1.46227 19.4166 1.26091 19.5 1.05094 19.5ZM16.0926 3.66667H13.7176V7.625C13.7164 8.88439 13.2155 10.0918 12.325 10.9824C11.4345 11.8729 10.227 12.3737 8.96761 12.375H8.61611C8.8919 12.8548 9.28897 13.2536 9.7675 13.5315C10.246 13.8094 10.7892 13.9566 11.3426 13.9583H16.0926C16.9325 13.9583 17.7379 13.6247 18.3318 13.0308C18.9256 12.437 19.2593 11.6315 19.2593 10.7917V6.83333C19.2593 5.99348 18.9256 5.18803 18.3318 4.59416C17.7379 4.0003 16.9325 3.66667 16.0926 3.66667Z" fill="#006E5F"/>
</g>
<defs>
<clipPath id="clip0_181_1165">
<rect width="19" height="19" fill="white" transform="translate(0.259277 0.5)"/>
</clipPath>
</defs>
</svg>
