<svg width="14" height="12" viewBox="0 0 14 12" fill="none" xmlns="http://www.w3.org/2000/svg">
<g clip-path="url(#clip0_181_1072)">
<path d="M11.2057 3.456C10.2681 2.6585 9.05368 2.1345 7.71251 2.0225L8.79693 0H13.0582L11.2057 3.456ZM6.62809 2.023L5.54693 0H1.22876L3.09534 3.4925C4.03784 2.675 5.26743 2.1375 6.62809 2.023ZM12.0469 7.5C12.0469 9.9815 9.85968 12 7.17193 12C4.48418 12 2.29693 9.9815 2.29693 7.5C2.29693 5.0185 4.48363 3 7.17193 3C9.86022 3 12.0469 5.0185 12.0469 7.5ZM9.14034 8.5C9.14034 8.0205 8.89497 7.5935 8.51472 7.3185C8.68155 7.083 8.77905 6.802 8.77905 6.5C8.77905 5.673 8.04997 5 7.15405 5H5.79988V6H7.15405C7.45305 6 7.69572 6.224 7.69572 6.5C7.69572 6.776 7.45305 7 7.15405 7H6.61238V8H7.51534C7.81434 8 8.05701 8.224 8.05701 8.5C8.05701 8.776 7.81434 9 7.51534 9H5.79988V10H7.51534C8.41126 10 9.14034 9.327 9.14034 8.5Z" fill="#FDFDFD"/>
</g>
<defs>
<clipPath id="clip0_181_1072">
<rect width="13" height="12" fill="white" transform="translate(0.654053)"/>
</clipPath>
</defs>
</svg>
