<svg width="22" height="20" viewBox="0 0 22 20" fill="none" xmlns="http://www.w3.org/2000/svg">
<g clip-path="url(#clip0_181_1162)">
<path d="M20.0404 11.3425C19.1313 10.4767 17.9229 10 16.6376 10C15.3522 10 14.1438 10.4767 13.2347 11.3425C11.3578 13.13 11.3578 16.0375 13.2417 17.8308L14.8456 19.3242C15.3399 19.785 15.9892 20.015 16.6384 20.015C17.2877 20.015 17.9369 19.785 18.4313 19.3242L20.0413 17.8242C21.9182 16.0367 21.9173 13.1292 20.0404 11.3425ZM16.6376 15.8283C15.9131 15.8283 15.3251 15.2683 15.3251 14.5783C15.3251 13.8883 15.9131 13.3283 16.6376 13.3283C17.3621 13.3283 17.9501 13.8883 17.9501 14.5783C17.9501 15.2683 17.3621 15.8283 16.6376 15.8283ZM10.2177 15.8333H9.20007C8.71707 15.8333 8.32507 15.46 8.32507 15C8.32507 14.54 8.71707 14.1667 9.20007 14.1667H10.0751C10.0847 14.1667 10.0926 14.1717 10.1022 14.1717C10.1433 13.5608 10.2772 12.9558 10.5056 12.3767C10.3769 12.4483 10.2352 12.5 10.0751 12.5H9.20007C8.71707 12.5 8.32507 12.1267 8.32507 11.6667C8.32507 11.2067 8.71707 10.8333 9.20007 10.8333H10.0751C10.5064 10.8333 10.8486 11.1358 10.9203 11.5275C11.2073 11.04 11.5617 10.5783 11.9974 10.1642C12.7009 9.49417 13.5392 9.00167 14.4501 8.695V4.16667C14.4501 1.86917 12.4874 0 10.0751 0H4.82507C2.4127 0 0.450073 1.86917 0.450073 4.16667V15.8333C0.450073 18.1308 2.4127 20 4.82507 20H10.0751C10.9229 20 11.7087 19.7592 12.3798 19.36L12.0176 19.0225C11.0647 18.115 10.4671 17.0008 10.2177 15.8333ZM9.20007 4.16667H10.0751C10.5581 4.16667 10.9501 4.54 10.9501 5C10.9501 5.46 10.5581 5.83333 10.0751 5.83333H9.20007C8.71707 5.83333 8.32507 5.46 8.32507 5C8.32507 4.54 8.71707 4.16667 9.20007 4.16667ZM9.20007 7.5H10.0751C10.5581 7.5 10.9501 7.87333 10.9501 8.33333C10.9501 8.79333 10.5581 9.16667 10.0751 9.16667H9.20007C8.71707 9.16667 8.32507 8.79333 8.32507 8.33333C8.32507 7.87333 8.71707 7.5 9.20007 7.5ZM5.70007 15.8333H4.82507C4.34207 15.8333 3.95007 15.46 3.95007 15C3.95007 14.54 4.34207 14.1667 4.82507 14.1667H5.70007C6.18307 14.1667 6.57507 14.54 6.57507 15C6.57507 15.46 6.18307 15.8333 5.70007 15.8333ZM5.70007 12.5H4.82507C4.34207 12.5 3.95007 12.1267 3.95007 11.6667C3.95007 11.2067 4.34207 10.8333 4.82507 10.8333H5.70007C6.18307 10.8333 6.57507 11.2067 6.57507 11.6667C6.57507 12.1267 6.18307 12.5 5.70007 12.5ZM5.70007 9.16667H4.82507C4.34207 9.16667 3.95007 8.79333 3.95007 8.33333C3.95007 7.87333 4.34207 7.5 4.82507 7.5H5.70007C6.18307 7.5 6.57507 7.87333 6.57507 8.33333C6.57507 8.79333 6.18307 9.16667 5.70007 9.16667ZM5.70007 5.83333H4.82507C4.34207 5.83333 3.95007 5.46 3.95007 5C3.95007 4.54 4.34207 4.16667 4.82507 4.16667H5.70007C6.18307 4.16667 6.57507 4.54 6.57507 5C6.57507 5.46 6.18307 5.83333 5.70007 5.83333Z" fill="#006E5F"/>
</g>
<defs>
<clipPath id="clip0_181_1162">
<rect width="21" height="20" fill="white" transform="translate(0.450073)"/>
</clipPath>
</defs>
</svg>
